<?xml version="1.0" standalone="no"?>
<!DOCTYPE svg PUBLIC "-//W3C//DTD SVG 20010904//EN"
 "http://www.w3.org/TR/2001/REC-SVG-20010904/DTD/svg10.dtd">
<svg version="1.0" xmlns="http://www.w3.org/2000/svg"
 width="512.000000pt" height="512.000000pt" viewBox="0 0 512.000000 512.000000"
 preserveAspectRatio="xMidYMid meet">
<metadata>
Created by potrace 1.16, written by Peter Selinger 2001-2019
</metadata>
<g transform="translate(0.000000,512.000000) scale(0.100000,-0.100000)"
fill="#000000" stroke="none">
<path d="M29 5091 l-29 -29 0 -2502 0 -2502 29 -29 29 -29 1862 0 1862 0 29
29 29 29 0 2502 0 2502 -29 29 -29 29 -1862 0 -1862 0 -29 -29z m3596 -2531
l0 -2345 -1705 0 -1705 0 -3 2335 c-1 1284 0 2341 3 2348 3 10 350 12 1707 10
l1703 -3 0 -2345z"/>
<path d="M3055 4581 c-44 -18 -60 -50 -65 -130 l-5 -76 -77 -5 c-63 -4 -81 -9
-102 -29 -33 -31 -41 -70 -22 -114 20 -48 60 -67 141 -67 l65 0 0 -76 c0 -70
2 -78 29 -105 21 -21 39 -29 65 -29 81 0 116 43 116 144 l0 66 65 0 c76 0 111
14 131 51 24 47 18 97 -15 130 -27 27 -35 29 -105 29 l-76 0 0 65 c0 80 -19
121 -65 141 -38 16 -51 16 -80 5z"/>
<path d="M2415 4471 c-11 -5 -27 -17 -36 -27 -25 -28 -339 -768 -339 -798 0
-89 101 -138 167 -82 15 13 41 56 57 95 l30 71 161 0 162 0 28 -67 c38 -92 59
-120 99 -133 65 -21 136 29 136 96 0 26 -246 620 -327 792 -24 51 -85 74 -138
53z"/>
<path d="M480 4143 c-40 -27 -49 -45 -50 -91 0 -35 6 -49 29 -73 l29 -29 575
0 c556 0 575 1 599 20 60 47 57 133 -6 171 -30 18 -57 19 -591 19 -512 0 -563
-1 -585 -17z"/>
<path d="M480 3183 c-40 -27 -49 -45 -50 -91 0 -35 6 -49 29 -73 l29 -29 1432
0 1432 0 29 29 c50 51 36 137 -28 170 -16 8 -414 11 -1435 11 -1315 0 -1415
-1 -1438 -17z"/>
<path d="M494 2660 c-66 -27 -84 -117 -35 -172 l29 -33 1414 -3 c1047 -2 1420
1 1441 9 71 29 89 114 38 171 l-29 33 -1419 2 c-780 1 -1428 -2 -1439 -7z"/>
<path d="M459 2101 c-50 -51 -36 -137 28 -170 16 -8 413 -11 1433 -11 1534 0
1452 -3 1478 55 21 47 15 94 -17 126 l-29 29 -1432 0 -1432 0 -29 -29z"/>
<path d="M485 1588 c-37 -20 -55 -52 -55 -96 0 -35 6 -49 29 -73 l29 -29 1432
0 1432 0 29 29 c50 51 36 137 -28 170 -31 16 -2839 15 -2868 -1z"/>
<path d="M494 1060 c-66 -27 -84 -117 -35 -172 l29 -33 671 -3 c738 -3 714 -5
746 58 19 37 19 63 -1 101 -30 60 -20 59 -736 58 -359 0 -663 -4 -674 -9z"/>
<path d="M4557 4890 c-78 -28 -122 -57 -180 -119 -55 -58 -92 -132 -107 -211
-6 -34 -10 -681 -10 -1841 l0 -1787 169 -339 c93 -186 178 -346 189 -356 29
-27 92 -33 131 -13 27 14 54 61 201 356 l170 340 -2 1838 -3 1837 -32 67 c-44
93 -110 160 -200 205 -66 32 -83 36 -171 40 -79 3 -108 0 -155 -17z m196 -211
c21 -5 54 -24 74 -42 52 -46 73 -98 73 -185 l0 -73 -121 3 -122 3 -30 53 c-30
55 -47 153 -33 205 10 41 82 58 159 36z m157 -624 l0 -105 -215 0 -215 0 0
105 0 105 215 0 215 0 0 -105z m0 -1621 c0 -1152 -2 -1295 -15 -1290 -73 28
-298 32 -382 7 l-33 -10 0 1295 0 1294 215 0 215 0 0 -1296z m-79 -1496 c22
-6 39 -14 38 -17 0 -3 -40 -85 -88 -181 l-89 -175 -88 177 c-49 97 -85 180
-81 184 3 4 32 13 64 20 64 15 183 11 244 -8z"/>
</g>
</svg>
